<svg xmlns="http://www.w3.org/2000/svg" width="159" height="162" fill="none" fill-rule="evenodd" xmlns:v="https://vecta.io/nano"><path d="M155.48 102.765l-3.163-.597-.289-3.122 2.999-1.168 2.88-1.846-.429-2.298-3.353-.68-3.219-.005-.858-3.017 2.733-1.698 2.493-2.344-.845-2.18-3.421-.053-3.165.585-1.398-2.806 2.375-2.172 2.019-2.762-1.231-1.988-3.372.577-3.003 1.157-1.89-2.502 1.934-2.572 1.478-3.085-1.575-1.728-3.209 1.186-2.74 1.689-2.317-2.112 1.429-2.883.885-3.305-1.866-1.409-2.936 1.755-2.382 2.164-2.667-1.65.875-3.097.263-3.41-2.093-1.043-2.564 2.265-1.944 2.565-2.924-1.133.291-3.205-.369-3.4-2.249-.64-2.104 2.697-1.439 2.878-3.083-.576-.303-3.204-.987-3.275-2.328-.216-1.573 3.039-.886 3.093h-3.136l-.886-3.093-1.573-3.039-2.328.216-.987 3.275-.303 3.204-3.083.576-1.44-2.878-2.103-2.697-2.25.64-.368 3.4.291 3.205-2.924 1.133-1.944-2.565-2.564-2.264-2.093 1.041.263 3.411.875 3.097-2.667 1.65-2.382-2.163-2.936-1.756-1.866 1.41.885 3.304 1.429 2.883-2.317 2.112-2.74-1.69-3.209-1.185-1.575 1.728 1.477 3.085 1.935 2.572-1.89 2.502-3.003-1.157-3.372-.577-1.231 1.988 2.019 2.761 2.375 2.173-1.398 2.806-3.165-.585-3.42.053-.846 2.18 2.493 2.344 2.733 1.698-.858 3.017-3.219.005-3.353.68-.43 2.298 2.881 1.846 3 1.168-.29 3.122-3.163.597-3.17 1.285v2.338l3.17 1.285 3.163.597.29 3.122-3 1.168-2.88 1.846.43 2.298 3.352.681 3.219.005.858 3.016-2.733 1.699-2.493 2.343.845 2.18 3.42.053 3.166-.585 1.398 2.807-2.375 2.172-2.02 2.761 1.232 1.988 3.372-.577 3.003-1.157 1.89 2.503-1.935 2.571-1.477 3.085 1.575 1.728 3.21-1.186 2.739-1.689 2.317 2.112-1.429 2.883-.885 3.305 1.866 1.409 2.936-1.755 2.382-2.164 2.667 1.651-.875 3.096-.263 3.411 2.093 1.042 2.564-2.265 1.944-2.564 2.924 1.132-.29 3.205.367 3.401 2.25.64 2.104-2.698 1.44-2.878 3.082.576.303 3.204.987 3.275 2.328.216 1.573-3.038.886-3.094h3.136l.886 3.094 1.573 3.038 2.328-.216.987-3.275.303-3.204 3.083-.576 1.439 2.878 2.104 2.698 2.249-.64.369-3.401-.291-3.205 2.924-1.132 1.944 2.564 2.564 2.265 2.093-1.042-.263-3.411-.875-3.096 2.667-1.651 2.382 2.164 2.936 1.755 1.866-1.409-.885-3.305-1.429-2.883 2.317-2.112 2.74 1.689 3.209 1.186 1.575-1.728-1.478-3.085-1.934-2.571 1.89-2.503 3.003 1.157 3.372.577 1.231-1.988-2.019-2.761-2.375-2.172 1.398-2.807 3.165.585 3.421-.053.845-2.18-2.493-2.343-2.733-1.699.858-3.016 3.219-.005 3.353-.681.429-2.298-2.88-1.846-2.999-1.168.289-3.122 3.163-.597 3.17-1.285v-2.338l-3.17-1.285zm-53.087 18.29c8.745 0 15.833-7.088 15.833-15.831s-7.088-15.83-15.833-15.83-15.833 7.087-15.833 15.83 7.09 15.831 15.833 15.831z" fill="#3771c8"/><path d="M72.255 36.04l-.821.066L71 32.82l.81-.149 2.022-.913 2.61-2.017-.551-2.06-3.27-.442-2.207.22-.776.276-1.269-3.06.745-.354 1.716-1.405 2-2.624-1.067-1.848-3.272.42-2.076.783-.678.468-2.017-2.629.627-.533 1.294-1.802 1.252-3.052-1.508-1.508-3.053 1.252-1.801 1.294-.534.627-2.63-2.017.468-.678.785-2.075.419-3.272-1.848-1.066-2.624 1.998-1.405 1.717-.354.744-3.061-1.268.276-.776.22-2.207-.442-3.27-2.06-.551-2.018 2.61-.913 2.021-.149.81-3.286-.432.066-.821-.358-2.19L39.81 0h-2.133l-1.273 3.043-.359 2.189.066.821-3.285.432-.149-.81-.913-2.021-2.018-2.61-2.06.552-.442 3.269.22 2.207.276.776-3.061 1.268-.354-.744-1.405-1.717-2.625-1.998-1.847 1.066.42 3.272.783 2.075.468.678-2.63 2.017-.533-.627-1.802-1.294-3.052-1.252-1.509 1.508 1.252 3.052 1.294 1.802.628.533-2.018 2.63-.678-.469-2.075-.784-3.272-.419-1.067 1.848 2 2.624 1.716 1.404.744.354-1.268 3.061-.776-.276-2.208-.22-3.269.442-.552 2.06 2.61 2.017 2.022.913.81.149-.432 3.285-.821-.066-2.19.359L0 37.672v2.132l3.043 1.273 2.19.359.821-.066.432 3.285-.81.149-2.022.913-2.61 2.017.552 2.06 3.27.442 2.207-.22.776-.276 1.268 3.06-.744.354-1.717 1.405-1.999 2.624 1.067 1.848 3.272-.42 2.075-.783.678-.468 2.018 2.629-.627.533-1.295 1.802-1.252 3.052 1.509 1.508 3.052-1.252 1.802-1.294.534-.627 2.629 2.017-.468.678-.784 2.075-.419 3.272 1.848 1.066 2.624-1.998 1.405-1.717.354-.744 3.061 1.268-.276.776-.22 2.207.442 3.27 2.06.551 2.018-2.61.913-2.021.149-.81 3.285.432-.066.821.359 2.19 1.273 3.042h2.133l1.274-3.043.358-2.189-.066-.821 3.286-.432.148.81.914 2.021 2.017 2.61 2.06-.552.443-3.269-.22-2.207-.276-.776 3.061-1.268.354.744 1.405 1.717 2.624 1.998 1.848-1.066-.42-3.272-.783-2.075-.468-.678 2.629-2.017.534.627 1.801 1.294 3.053 1.252 1.508-1.508-1.252-3.052-1.294-1.802-.627-.533 2.017-2.63.678.468 2.076.784 3.272.42 1.066-1.848-1.999-2.624-1.716-1.405-.745-.353 1.269-3.061.776.276 2.207.22 3.27-.442.552-2.06-2.61-2.017-2.023-.913-.81-.149.433-3.285.821.066 2.19-.359 3.043-1.273v-2.132l-3.044-1.273-2.189-.36zM38.743 51.778a13.03 13.03 0 0 0 13.028-13.027 13.03 13.03 0 0 0-13.029-13.026 13.03 13.03 0 0 0-13.028 13.026 13.03 13.03 0 0 0 13.029 13.027z" fill="#acf"/></svg>