<svg xmlns="http://www.w3.org/2000/svg" xmlns:xlink="http://www.w3.org/1999/xlink" width="288" height="288" xmlns:v="https://vecta.io/nano"><svg fill-rule="evenodd" viewBox="0 0 25 24" width="288" height="288"><g fill="#fff"><use xlink:href="#B"/><use xlink:href="#B" y="4"/><path d="M16.09 6.62c-2.198 0-4.141.561-5.349 1.385-1.016.693-1.551 1.59-1.551 2.515s.535 1.822 1.551 2.515c1.208.824 3.151 1.385 5.349 1.385s4.141-.561 5.349-1.385c1.016-.693 1.551-1.59 1.551-2.515s-.535-1.822-1.551-2.515c-1.208-.824-3.151-1.385-5.349-1.385zm0 1.8c1.776 0 3.358.407 4.335 1.072.441.301.765.627.765 1.028s-.324.727-.765 1.028c-.977.665-2.559 1.072-4.335 1.072s-3.358-.407-4.335-1.072c-.441-.301-.765-.627-.765-1.028s.324-.727.765-1.028c.977-.665 2.559-1.072 4.335-1.072zM1.19 5v4c0 .756.349 1.484 1.027 2.103.801.732 2.109 1.326 3.7 1.61a.9.9 0 0 0 1.044-.728.9.9 0 0 0-.729-1.044c-1.014-.181-1.889-.503-2.506-.933C3.301 9.713 2.99 9.392 2.99 9V5a.9.9 0 1 0-1.8 0z"/><path d="M1.19 9v4c0 .845.441 1.662 1.29 2.325 1.003.784 2.63 1.371 4.539 1.531a.9.9 0 1 0 .15-1.794c-1.5-.125-2.793-.54-3.582-1.156-.346-.27-.597-.561-.597-.906V9a.9.9 0 1 0-1.8 0zm5.967-1.939c-1.495-.127-2.785-.542-3.571-1.157-.346-.27-.596-.56-.596-.904 0-.401.324-.727.765-1.028C4.732 3.307 6.314 2.9 8.09 2.9s3.358.407 4.335 1.072c.441.301.765.627.765 1.028a.9.9 0 0 0 1.8 0c0-.925-.535-1.822-1.551-2.515C12.231 1.661 10.288 1.1 8.09 1.1s-4.141.561-5.349 1.385C1.725 3.178 1.19 4.075 1.19 5c0 .844.44 1.66 1.287 2.322 1.001.783 2.625 1.371 4.528 1.532a.9.9 0 0 0 .973-.82.9.9 0 0 0-.821-.973z"/></g></svg><defs ><path id="B" d="M9.19 10.52v4c0 .925.534 1.822 1.55 2.515 1.208.824 3.151 1.385 5.35 1.385s4.142-.561 5.35-1.385c1.016-.693 1.55-1.59 1.55-2.515v-4a.9.9 0 0 0-1.8 0v4c0 .401-.324.728-.765 1.028-.976.666-2.558 1.072-4.335 1.072s-3.359-.406-4.335-1.072c-.441-.3-.765-.627-.765-1.028v-4a.9.9 0 1 0-1.8 0z"/></defs></svg>