<svg xmlns="http://www.w3.org/2000/svg" xmlns:xlink="http://www.w3.org/1999/xlink" width="193" height="142" fill="none" xmlns:v="https://vecta.io/nano"><path d="M65.341 15.383c-3.065 0-6.152.758-8.705 2.486L19.22 43.184c-2.566 1.736-4.298 4.414-4.298 7.469v1.235c0 3.055 1.732 5.733 4.298 7.468l99.118 67.063c5.091 3.444 12.32 3.444 17.411 0l37.416-25.315c2.566-1.736 4.298-4.414 4.298-7.47V92.4c0-3.056-1.732-5.733-4.298-7.47L74.047 17.869c-2.554-1.727-5.64-2.485-8.706-2.485Z" fill="#1d1f20"/><g filter="url(#N)"><path d="M110.031 42.215l64.277 45.303c2.796 2.797 2.524 4.236 2.387 6.713-.124 2.254-1.163 4.448-5.66 8.314l2.13-1.441c2.566-1.736 4.298-4.414 4.298-7.47V92.4c0-3.056-1.732-5.733-4.298-7.469l-63.134-42.716z" fill="#bbbcbd" fill-opacity=".528"/></g><g filter="url(#M)"><path d="M57.289 18.983 19.37 44.64c-4.218 2.854-4.218 7.481 0 10.336l100.45 67.962c4.218 2.855 11.057 2.855 15.276 0l37.919-25.655c4.218-2.854 4.218-7.482 0-10.336L72.565 18.983c-4.218-2.854-11.058-2.854-15.276 0Z" fill="#fff" fill-opacity=".285"/></g><path d="M57.289 18.08 19.37 43.733c-4.218 2.855-4.218 7.482 0 10.336l100.45 67.963c4.218 2.854 11.057 2.854 15.276 0l37.919-25.655c4.218-2.854 4.218-7.482 0-10.336L72.565 18.08c-4.218-2.854-11.058-2.854-15.276 0Z" fill="url(#C)"/><path d="M76.817 24.431L28.758 56.947a.29.29 0 0 0 0 .522l86.038 58.212a.74.74 0 0 0 .772 0l48.058-32.516c.214-.144.214-.378 0-.522L77.589 24.431a.742.742 0 0 0-.772 0z" fill="url(#D)"/><g stroke-width="2.424"><path d="M151.658 107.556c2.663-1.841 2.663-4.827 0-6.668s-6.982-1.842-9.645 0-2.663 4.827 0 6.668 6.981 1.841 9.645 0z" stroke="#323739"/><path d="M140.127 105.069c-.253-.956-.072-1.944.519-2.827.59-.882 1.561-1.617 2.78-2.104" stroke="url(#E)" stroke-linecap="square"/></g><path opacity=".138" d="M153.556 103.538c.241.947.039 1.922-.578 2.787-.617.866-1.619 1.58-2.865 2.042" stroke="url(#F)" stroke-width="2.437" stroke-linecap="square"/><path d="M151.344 107.545c2.491-1.718 2.491-4.504 0-6.223s-6.527-1.718-9.017 0-2.491 4.505 0 6.223 6.527 1.719 9.017 0z" stroke="#161919" stroke-width="2.021"/><path d="M77.354 24.795L29.296 57.31a.29.29 0 0 0 0 .522l84.963 57.485a.742.742 0 0 0 .771 0l48.059-32.516a.29.29 0 0 0 0-.522L78.126 24.795a.742.742 0 0 0-.772 0z" fill="#66d4a9"/><path d="M16.443 49.167c.424 1.326 1.397 2.59 2.927 3.625l100.449 67.963c4.232 2.863 11.045 2.863 15.277 0l.528-.358c-4.289 2.774-11.041 2.736-15.259-.118L18.825 51.577c-1.054-.713-1.847-1.535-2.382-2.41Z" fill="url(#G)"/><path d="M57.613 18.554c3.879-2.624 9.843-2.933 14.215-.929-2-1.128-4.45-1.693-6.9-1.693-2.762 0-5.523.716-7.64 2.147L19.37 43.735" fill="url(#A)"/><g fill="#131415"><path d="M150.644 114.67a.615.615 0 0 0 .235-.449c0-.158-.105-.212-.235-.121a.615.615 0 0 0-.235.45c0 .157.105.211.235.12zm7.883-5.323a.615.615 0 0 0 .235-.449c0-.158-.105-.212-.235-.121a.615.615 0 0 0-.235.45c0 .157.105.211.235.12z" stroke="#8f969d" stroke-width="1.223"/><path d="M138.037 123.461c.262-.173.475-.555.475-.853s-.213-.401-.475-.229-.474.554-.474.853.213.401.474.229zm-1.485 1.004a1.15 1.15 0 0 0 .475-.852c0-.299-.213-.401-.475-.229a1.15 1.15 0 0 0-.474.853c0 .299.212.401.474.228zm4.456-3.014a1.15 1.15 0 0 0 .474-.853c0-.299-.212-.401-.474-.228a1.15 1.15 0 0 0-.474.852c0 .299.212.401.474.229zm-1.485 1.005a1.15 1.15 0 0 0 .474-.853c0-.299-.212-.401-.474-.229s-.475.555-.475.853.213.401.475.229zm4.455-3.015a1.15 1.15 0 0 0 .474-.853c0-.298-.212-.401-.474-.228a1.15 1.15 0 0 0-.474.853c0 .298.212.401.474.228zm-1.485 1.005a1.15 1.15 0 0 0 .474-.853c0-.298-.212-.401-.474-.228a1.15 1.15 0 0 0-.474.853c0 .298.212.4.474.228zm4.455-3.014c.262-.173.475-.555.475-.853s-.213-.401-.475-.229-.474.554-.474.853.213.401.474.229zm-1.485 1.004a1.15 1.15 0 0 0 .475-.853c0-.298-.213-.4-.475-.228a1.15 1.15 0 0 0-.474.853c0 .298.212.401.474.228zm18.245-12.344a1.15 1.15 0 0 0 .474-.853c0-.298-.212-.401-.474-.228a1.15 1.15 0 0 0-.474.853c0 .298.212.401.474.228zm-1.485 1.005a1.15 1.15 0 0 0 .474-.853c0-.298-.212-.401-.474-.228a1.15 1.15 0 0 0-.474.853c0 .298.212.4.474.228zm4.455-3.014c.262-.173.475-.555.475-.853s-.213-.401-.475-.229-.474.554-.474.853.213.401.474.229zm-1.485 1.004a1.15 1.15 0 0 0 .474-.852c0-.299-.212-.401-.474-.229a1.15 1.15 0 0 0-.474.853c0 .298.212.401.474.228zm4.456-3.014a1.15 1.15 0 0 0 .474-.853c0-.299-.212-.401-.474-.229s-.474.555-.474.853.212.401.474.229zm-1.485 1.005c.261-.173.474-.555.474-.853s-.213-.401-.474-.229-.475.555-.475.853.213.401.475.229zm4.455-3.015a1.15 1.15 0 0 0 .474-.853c0-.298-.212-.4-.474-.228a1.15 1.15 0 0 0-.474.853c0 .298.212.401.474.228zm-1.485 1.005a1.15 1.15 0 0 0 .474-.853c0-.299-.212-.4-.474-.228a1.15 1.15 0 0 0-.474.852c0 .299.212.401.474.229z"/></g><path d="m53.639 31.198-9.207 6.229c-.226.153-.226.4 0 .554a.787.787 0 0 0 .818 0l9.207-6.23c.226-.152.226-.4 0-.553a.787.787 0 0 0-.818 0Z" fill="#17181a"/><path d="M42.659 40.565c.565-.383.565-1.002 0-1.385s-1.481-.382-2.046 0-.565 1.002 0 1.385 1.48.382 2.046 0z" fill="url(#O)"/><path d="M54.048 31.478a.74.74 0 0 0-.41.115l-9.206 6.23a.45.45 0 0 0-.088.079.45.45 0 0 0 .088.079.785.785 0 0 0 .818 0l9.207-6.23a.452.452 0 0 0 .088-.079.455.455 0 0 0-.088-.079.737.737 0 0 0-.41-.115Z" fill="#202124"/><path d="M50.418 76.887l-5.66-3.826c-.605-.41-1.095-.167-1.095.542s.49 1.614 1.095 2.023l5.66 3.826c.605.41 1.096.167 1.096-.542s-.49-1.614-1.096-2.023z" fill="url(#J)" stroke="#1d1e1f" stroke-width="2.03"/><path d="M44.145 72.865a.491.491 0 0 0-.4.307c.189-.051.43.004.693.182l5.707 3.859c.612.414 1.104 1.324 1.104 2.04 0 .131-.016.246-.047.344.193-.101.311-.337.311-.687 0-.71-.488-1.612-1.095-2.023l-5.66-3.826c-.227-.154-.439-.216-.614-.196Z" fill="url(#K)"/><path d="M40.432 70.136l-5.66-3.826c-.605-.409-1.095-.166-1.095.542s.49 1.615 1.095 2.024l5.66 3.826c.605.409 1.096.166 1.096-.542s-.49-1.615-1.096-2.024z" fill="url(#L)" stroke="#1d1e1f" stroke-width="2.03"/><path d="M34.159 66.114a.491.491 0 0 0-.4.307c.189-.05.43.004.693.183l5.707 3.858c.612.414 1.104 1.324 1.104 2.04 0 .132-.016.246-.046.344.192-.1.31-.337.31-.686 0-.71-.488-1.613-1.095-2.023l-5.66-3.827c-.227-.154-.438-.216-.613-.196Z" fill="url(#I)"/><path d="m26.415 61.368 2.605 1.708c.193.127.35.401.35.619v.494c0 .218-.157.293-.35.166l-2.605-1.707c-.194-.127-.351-.402-.351-.62v-.494c0-.217.157-.293.35-.166Z" fill="#1d1e1f" stroke="#1d1e1f" stroke-width="2.019"/><path opacity=".308" d="M25.775 61.432c-.051.035-.082.104-.082.2a.83.83 0 0 0 .35.62l2.605 1.707c.073.047.14.066.197.06a.155.155 0 0 0 .071-.026l.372-.25c.051-.036.082-.104.082-.201a.83.83 0 0 0-.35-.619l-2.605-1.707c-.108-.07-.204-.078-.268-.035l-.372.251z" fill="url(#H)"/><path d="M26.043 61.467l2.605 1.707a.83.83 0 0 1 .35.62c0 .217-.156.29-.35.165l-2.605-1.707a.83.83 0 0 1-.35-.62c0-.217.156-.292.35-.165z" fill="url(#B)"/><defs><linearGradient id="A" x1="59.812" y1="13.769" x2="40.203" y2="56.4" xlink:href="#P"><stop stop-color="#e9eaeb"/></linearGradient><linearGradient id="B" x1="26.868" y1="62.78" x2="27.264" y2="62.172" xlink:href="#P"><stop stop-color="#212324"/><stop offset="1" stop-color="#36393a"/></linearGradient><linearGradient id="C" x1="106.62" y1="122.782" x2="114.117" y2="51.153" xlink:href="#P"><stop stop-color="#161719"/><stop offset="1" stop-color="#111213"/></linearGradient><linearGradient id="D" x1="71.777" y1="86.575" x2="102.445" y2="41.248" xlink:href="#P"><stop stop-color="#0e1113" stop-opacity=".159"/><stop offset=".5" stop-color="#eceff1" stop-opacity=".023"/><stop offset="1" stop-color="#0e1113" stop-opacity=".159"/></linearGradient><linearGradient id="E" x1="138.827" y1="104.588" x2="142.567" y2="99.178" xlink:href="#P"><stop offset="1" stop-color="#d9dcde"/></linearGradient><linearGradient id="F" x1="149.569" y1="107.747" x2="151.345" y2="102.958" xlink:href="#P"><stop stop-color="#d9dcde"/></linearGradient><linearGradient id="G" x1="114.241" y1="116.777" x2="51.063" y2="-15.668" xlink:href="#P"><stop stop-color="#d3d4e0" stop-opacity=".365"/></linearGradient><linearGradient id="H" x1="28.933" y1="63.255" x2="29.167" y2="63.69" xlink:href="#P"><stop stop-color="#e9eaeb"/></linearGradient><linearGradient id="I" x1="38.254" y1="68.81" x2="37.476" y2="71.096" xlink:href="#P"><stop stop-color="#616769"/></linearGradient><linearGradient id="J" x1="47.337" y1="77.352" x2="48.652" y2="75.422" xlink:href="#P"><stop stop-color="#212324"/><stop offset="1" stop-color="#36393a"/></linearGradient><linearGradient id="K" x1="48.24" y1="75.561" x2="47.462" y2="77.846" xlink:href="#P"><stop stop-color="#616769"/></linearGradient><linearGradient id="L" x1="37.351" y1="70.602" x2="38.666" y2="68.671" xlink:href="#P"><stop stop-color="#212324"/><stop offset="1" stop-color="#36393a"/></linearGradient><filter id="M" x=".14" y=".776" width="192.106" height="140.369" filterUnits="userSpaceOnUse" color-interpolation-filters="sRGB"><feFlood flood-opacity="0"/><feBlend in="SourceGraphic"/><feGaussianBlur stdDeviation="8.033"/></filter><filter id="N" x="105.847" y="38.032" width="75.799" height="68.696" filterUnits="userSpaceOnUse" color-interpolation-filters="sRGB"><feFlood flood-opacity="0"/><feBlend in="SourceGraphic"/><feGaussianBlur stdDeviation="2.092"/></filter><radialGradient id="O" cx="0" cy="0" r="1" gradientTransform="matrix(1.02297 -.69213 .64247 .94957 41.636 40.41)" xlink:href="#P"><stop stop-color="#2e3034"/><stop offset="1" stop-color="#161719"/></radialGradient><linearGradient id="P" gradientUnits="userSpaceOnUse"/></defs></svg>