<svg xmlns="http://www.w3.org/2000/svg" width="172" height="148" fill="#fdd307" stroke="#000" stroke-width="2.5" xmlns:v="https://vecta.io/nano"><path d="m24.35 134.708-1.834 1.679c-.518.612-.78.553-1.5.368a4.672 4.672 0 0 0-3.98 1.158c-1.902 1.743-2.042 4.695-.296 6.594a4.7 4.7 0 0 0 6.621.284 4.638 4.638 0 0 0 1.505-3.593c-.125-.782-.244-1.076.33-1.602l1.98-1.814-2.826-3.074Z"/><g fill-rule="evenodd"><path d="m30.869 87.901-6.982 6.394 6.784 7.377-4.518 4.137-6.784-7.377-1.707 1.563-1.99 1.821-1.706 1.564 6.783 7.377-4.517 4.137-6.784-7.377-6.982 6.393 8.668 9.427 3.218-1.437 2.261 2.459-1.71 3.076 3.392 3.689 9.036-8.274 4.145 4.508 10.332-9.461-4.145-4.508 9.035-8.274-3.392-3.689-3.218 1.437-2.261-2.459 1.71-3.076L30.87 87.9Z"/><path d="M146.79 25.431c-1.895-2.06-4.822-2.72-6.361-1.312-.994.91-1.22 2.415-.748 3.917l-1.373 1.258-1.908-2.075c-4.57 3.018-10.798 2.372-14.619-1.783a11.33 11.33 0 0 1 .689-16.014c4.615-4.226 11.799-3.906 16.034.7 2.033 2.211 2.991 5.01 2.957 7.791l6.331-.159a8.727 8.727 0 0 1 2.757-7.62 8.718 8.718 0 0 1 4.619-2.201 8.884 8.884 0 0 1 1.349-.102c.067 0 .129.006.197.008.061.002.123-.007.185-.004.26.013.527.047.785.082.278.04.558.094.832.16.049.01.098.018.146.03a8.852 8.852 0 0 1 2.217.92c.207.12.414.244.612.382.078.054.151.113.227.17a9.33 9.33 0 0 1 .572.467c.217.193.427.388.627.606l.012.013c.2.218.377.443.55.675.149.199.288.4.418.608.019.03.04.06.058.09.006.009.017.015.023.025.032.052.049.11.08.163a9.44 9.44 0 0 1 .319.604c.245.519.435 1.052.572 1.6.013.05.031.1.043.149a8.869 8.869 0 0 1 .228 2.15c-.001.066-.006.131-.009.197-.012.28-.034.568-.073.846l-.001.024a8.89 8.89 0 0 1-.158.806 8.685 8.685 0 0 1-2.594 4.404 8.769 8.769 0 0 1-7.844 2.087l-.702 6.281c2.779.204 5.492 1.397 7.525 3.608 4.235 4.605 3.939 11.775-.676 16.002a11.39 11.39 0 0 1-16.047-.688c-3.821-4.156-3.932-10.403-.527-14.688l-1.908-2.075 1.374-1.257c1.459.598 2.981.502 3.975-.408 1.538-1.409 1.13-4.376-.765-6.437zm19.928-18.283a14.27 14.27 0 0 0-.793-.784 13.946 13.946 0 0 0-.736-.647l-.096-.078c-.037-.03-.082-.05-.119-.079a13.975 13.975 0 0 0-.778-.562 14.013 14.013 0 0 0-.864-.53c-.124-.069-.249-.134-.374-.2-.039-.02-.082-.034-.121-.054-.188-.097-.376-.195-.567-.283l-.363-.163a14.592 14.592 0 0 0-.412-.165l-.146-.056c-.113-.042-.226-.074-.34-.113-.22-.075-.433-.16-.656-.225-.211-.06-.422-.1-.635-.15-.197-.047-.399-.098-.598-.136-.24-.046-.481-.084-.722-.117-.177-.025-.351-.042-.528-.06-.045-.005-.089-.014-.135-.018a14.052 14.052 0 0 0-1.23-.053c-.033 0-.066-.004-.099-.004-.223.001-.444.009-.666.02-.202.011-.405.017-.606.036-.243.023-.49.068-.732.104-.219.033-.44.064-.658.107a13.88 13.88 0 0 0-1.308.326 13.43 13.43 0 0 0-1.278.462c-.041.016-.084.026-.125.043a13.858 13.858 0 0 0-6.747 6.084 16.123 16.123 0 0 0-2.188-3.022c-6.055-6.585-16.327-7.038-22.926-.995s-7.04 16.306-.985 22.89c3.695 4.02 8.966 5.745 14.008 5.104-2.317 2.058-5.741 2.414-8.799 3.338l-.725 5.383-.46.398a3.691 3.691 0 0 0-.647-1.012 3.678 3.678 0 0 0-5.194-.223c-1.498 1.372-1.61 3.7-.236 5.195a3.68 3.68 0 0 0 .859.676l-95.077 86.682 5.5 5.981 94.699-87.093c.154.322.348.636.602.912 1.375 1.495 3.708 1.582 5.206.21a3.658 3.658 0 0 0 .223-5.182 3.661 3.661 0 0 0-.955-.73l.438-.424 5.436-.26c1.185-2.96 1.834-6.333 4.087-8.46-1.072 4.958.199 10.346 3.894 14.364 6.055 6.585 16.34 7.026 22.939.984a16.18 16.18 0 0 0 .972-22.88 16.137 16.137 0 0 0-2.829-2.433 13.887 13.887 0 0 0 3.755-2.448 13.894 13.894 0 0 0 2.897-3.739c.021-.039.035-.081.055-.12.035-.068.061-.137.095-.205.066-.134.141-.263.202-.398.024-.051.046-.105.069-.157s.056-.111.081-.169c.097-.226.18-.459.264-.69.027-.073.058-.143.083-.217.003-.008-.001-.017.001-.025l.071-.206c.077-.237.151-.476.216-.716l.014-.061a11.29 11.29 0 0 0 .075-.305c.057-.237.123-.479.167-.719.054-.292.089-.597.124-.892l.02-.16c.032-.298.05-.583.062-.883.01-.222.005-.441.004-.664s-.009-.445-.02-.665l-.03-.469-.024-.284c-.019-.171-.04-.336-.065-.507-.005-.034-.015-.066-.02-.1a13.999 13.999 0 0 0-.424-1.9l-.097-.312c-.048-.146-.089-.29-.142-.436-.085-.235-.18-.458-.278-.689-.059-.136-.129-.279-.192-.414a13.554 13.554 0 0 0-1.053-1.89 14.071 14.071 0 0 0-.571-.776 14.26 14.26 0 0 0-.715-.855l-.024-.025a.125.125 0 0 1-.011-.013h-.001l.002.001z"/></g></svg>