<svg xmlns="http://www.w3.org/2000/svg" xmlns:xlink="http://www.w3.org/1999/xlink" width="656" height="421" fill="none" xmlns:v="https://vecta.io/nano"><style><![CDATA[.O{fill:#ff007a}.P{stroke:#ff007a}.Q{fill:#192756}.R{fill:#0f82d4}.S{fill:#09b96f}.T{fill:#040404}.U{stroke-width:2}]]></style><g class="P"><path d="M123.104 1h421.425a25.37 25.37 0 0 1 25.369 25.368v284.444H97.736V26.369A25.37 25.37 0 0 1 123.104 1z" class="T U"/><path d="M122.46 29.2h424.573c.638 0 1.156.518 1.156 1.157v253.402c0 .639-.518 1.157-1.156 1.157H122.46a1.157 1.157 0 0 1-1.157-1.157V30.356c0-.639.518-1.157 1.157-1.157z" class="Q"/></g><path d="M334.51 17.517c1.499 0 2.713-.721 2.713-1.612s-1.214-1.611-2.713-1.611-2.713.722-2.713 1.611 1.215 1.612 2.713 1.612z" class="O"/><g stroke-linejoin="round" class="P T"><path d="M96.757 310 1.489 413.831c-1.462 3.09.174 6.223 7.346 6.168l634.289-.294c10.807.426 14.732-3.141 9.721-8.638l-82.741-100.972L96.757 310z" class="U"/><path d="M127.324 322.936c-5.743-.249-9.021 3.921-11.494 6.793l-32.783 40.297c-4.644 5.124 2.728 6.184 8.616 6.255l481.208-.071c7 .099 10.099-3.749 5.691-7.902l-30.726-40.018c-1.909-2.31-4.524-4.543-9.074-4.517l-411.438-.837zm147.408 62.263-15.518 21.411c-2.389 3.123-.11 5.834 4.781 5.665l127.797-.22c3.99.293 7.624-3.333 5.59-6.264l-13.627-20.253c-1.357-2.382-3.693-3.177-6.252-3.12l-95.206.588c-4.841-.144-5.992.919-7.565 2.193z"/></g><mask id="A" maskUnits="userSpaceOnUse" x="120" y="28" width="429" height="258" mask-type="alpha"><path d="M122.46 29.2h424.573c.638 0 1.156.518 1.156 1.157v253.402c0 .639-.518 1.157-1.156 1.157H122.46a1.157 1.157 0 0 1-1.157-1.157V30.356c0-.639.518-1.157 1.157-1.157z" class="P Q"/></mask><g mask="url(#A)"><path d="m124.734 152.05 8.304 22.829c-.018.02-.029.044-.047.064l.063.189a75.69 75.69 0 0 0-9.346 12.582l-25.008-.678-1.453 3.378-1.705 4.642a96.13 96.13 0 0 0-1.468 4.705L93 203.976l20.461 13.688c-.024.224-.008.454-.031.678l.142.095c-.235 2.387-.314 4.773-.316 7.152h44.931a31.16 31.16 0 0 1 .332-4.278c.205-1.409.505-2.801.9-4.168s.875-2.706 1.452-4.01a31.34 31.34 0 0 1 2.006-3.789c.753-1.222 1.585-2.401 2.51-3.521s1.942-2.176 3.031-3.173a31.93 31.93 0 0 1 3.489-2.794 32.93 32.93 0 0 1 3.979-2.337 33.07 33.07 0 0 1 3.015-1.311l3.094-1.009s2.078-.505 3.126-.68l1.484-.174.505-.063 1.169-.141c.38-.027.757-.004 1.137-.017l1.294-.031.711-.016.521.032a32.64 32.64 0 0 1 2.604.205c3.728.422 7.45 1.443 10.988 3.205 11.175 5.563 17.594 16.603 17.667 28.07h44.979c0-2.387-.109-4.787-.347-7.184l20.713-13.861c-.006-.027-.025-.052-.031-.078-.36-1.579-.758-3.152-1.2-4.721s-.925-3.132-1.453-4.689-1.092-3.099-1.705-4.642a93.44 93.44 0 0 0-1.421-3.347l-24.818.679c-.166-.28-.367-.542-.537-.82h-.158a75.872 75.872 0 0 0-3.883-5.78 75.96 75.96 0 0 0-4.342-5.32l8.431-23.144-2.21-1.894c-1.247-1.025-2.514-2.025-3.805-2.984s-2.614-1.884-3.947-2.779-2.685-1.76-4.058-2.59l-1.183-.694-19.704 14.825c-.287-.126-.581-.21-.868-.331l-.047.03a79.164 79.164 0 0 0-6.648-2.462 79.34 79.34 0 0 0-6.835-1.879l-.032-.079c-.011-.003-.02-.014-.031-.016l-7.089-23.523-2.984-.3c-1.609-.118-3.23-.18-4.847-.222-1.081-.027-2.166-.018-3.252-.015-.543.005-1.084-.014-1.626 0a102.22 102.22 0 0 0-4.831.237c-.512.037-1.021.113-1.531.157l-7.073 23.43a79.37 79.37 0 0 0-14.951 4.657l-19.893-14.951-1.989 1.136a101.21 101.21 0 0 0-4.057 2.59c-1.334.895-2.656 1.819-3.947 2.779s-2.559 1.959-3.805 2.984c-.496.406-.966.843-1.453 1.262h.001zm91.837 19.846a5.39 5.39 0 0 1 2.036.552c2.606 1.298 3.649 4.431 2.32 6.978s-4.529 3.556-7.135 2.258-3.649-4.415-2.321-6.963c.996-1.91 3.038-2.969 5.1-2.825zm-75.213 23.886a5.403 5.403 0 0 1 2.037.553c2.607 1.298 3.649 4.415 2.321 6.962s-4.529 3.556-7.136 2.257-3.65-4.415-2.321-6.962c.996-1.91 3.038-2.953 5.099-2.81z" class="R"/><path d="M256.815 298.481l-8.305-22.829c.017-.019.03-.044.047-.062l-.063-.19a75.684 75.684 0 0 0 9.347-12.584l25.008.679 1.452-3.378a97.435 97.435 0 0 0 1.705-4.642 96.65 96.65 0 0 0 1.468-4.704 95.008 95.008 0 0 0 1.073-4.216l-20.461-13.688c.026-.224.009-.454.032-.679l-.141-.094c.234-2.386.313-4.773.315-7.152H223.36a31.33 31.33 0 0 1-.331 4.279 31.375 31.375 0 0 1-.9 4.168 31.42 31.42 0 0 1-1.452 4.01 31.49 31.49 0 0 1-2.006 3.789c-.754 1.221-1.586 2.401-2.51 3.521s-1.943 2.175-3.032 3.172a31.69 31.69 0 0 1-3.488 2.795 32.933 32.933 0 0 1-3.978 2.336c-.998.496-1.995.924-3.016 1.311a33.04 33.04 0 0 1-3.095 1.01l-3.125.679c-.493.083-.991.114-1.485.173l-.505.063-1.168.143c-.38.026-.757.003-1.137.016a32.82 32.82 0 0 1-1.295.031c-.236-.001-.473.022-.71.017l-.521-.032a32.668 32.668 0 0 1-2.605-.206c-3.728-.42-7.45-1.443-10.988-3.205-11.174-5.562-17.595-16.603-17.667-28.07h-44.979a72.97 72.97 0 0 0 .347 7.183L93 245.987c.006.027.025.052.032.079a95.38 95.38 0 0 0 1.2 4.72 95.44 95.44 0 0 0 1.453 4.689 96.354 96.354 0 0 0 1.705 4.642 95.3 95.3 0 0 0 1.421 3.347l24.818-.679c.166.281.367.542.536.821h.158a75.94 75.94 0 0 0 3.884 5.778 75.465 75.465 0 0 0 4.342 5.321l-8.431 23.145 2.21 1.894a101.598 101.598 0 0 0 3.805 2.984 101.19 101.19 0 0 0 3.947 2.778 98.65 98.65 0 0 0 4.058 2.589 45.23 45.23 0 0 0 1.184.695l19.703-14.825c.287.126.581.21.868.332l.048-.031a79.35 79.35 0 0 0 6.646 2.463 79.844 79.844 0 0 0 6.837 1.878l.031.079c.011.003.02.014.032.016l7.088 23.524 2.984.299c1.609.119 3.23.179 4.847.221 1.081.029 2.167.02 3.252.017h1.626a102.22 102.22 0 0 0 4.831-.238c.512-.036 1.021-.113 1.532-.158l7.073-23.428a79.41 79.41 0 0 0 14.95-4.658l19.892 14.952 1.99-1.138c1.372-.827 2.724-1.694 4.057-2.589a101.51 101.51 0 0 0 3.947-2.778 99.99 99.99 0 0 0 3.805-2.984c.496-.407.966-.844 1.453-1.263h.002zm-91.837-19.846a5.4 5.4 0 0 1-2.037-.552c-2.607-1.297-3.649-4.431-2.32-6.977s4.528-3.556 7.136-2.259 3.649 4.416 2.32 6.962c-.996 1.912-3.038 2.97-5.099 2.826zm75.212-23.885a5.414 5.414 0 0 1-2.036-.554c-2.608-1.297-3.65-4.415-2.322-6.962s4.53-3.555 7.137-2.257 3.649 4.414 2.32 6.962c-.996 1.911-3.038 2.953-5.099 2.811z" class="R"/><path d="M190.875 177.628c-25.962 0-47.151 21.168-47.151 47.13s21.189 47.151 47.151 47.151 47.131-21.189 47.131-47.151-21.169-47.13-47.131-47.13zm0 10.761c20.138 0 36.368 16.23 36.368 36.369s-16.23 36.389-36.368 36.389a36.34 36.34 0 0 1-36.39-36.389c0-20.139 16.251-36.369 36.39-36.369z" class="R"/><path d="M190.875 179.207c-25.101 0-45.551 20.45-45.551 45.551s20.451 45.55 45.551 45.55 45.529-20.45 45.529-45.55-20.429-45.551-45.529-45.551zm0 7.581c21 0 37.97 16.97 37.97 37.97s-16.97 37.97-37.97 37.97-37.969-16.97-37.969-37.97 16.969-37.97 37.969-37.97z" class="R"/><path d="M257.709 25.287l8.305 22.829c-.018.019-.03.044-.048.063l.064.189a75.653 75.653 0 0 0-9.347 12.582l-25.007-.678-1.453 3.378a96.23 96.23 0 0 0-1.705 4.642 96.995 96.995 0 0 0-1.468 4.704 94.93 94.93 0 0 0-1.074 4.216L246.437 90.9c-.025.224-.009.454-.031.678l.142.095c-.236 2.387-.314 4.773-.316 7.152h44.931c.009-1.433.127-2.869.332-4.279a31.15 31.15 0 0 1 .9-4.168 31.38 31.38 0 0 1 1.452-4.01 31.625 31.625 0 0 1 2.005-3.789 31.56 31.56 0 0 1 2.51-3.521 31.79 31.79 0 0 1 3.031-3.173c1.088-.998 2.244-1.938 3.49-2.794a32.9 32.9 0 0 1 3.978-2.337c.997-.496 1.994-.924 3.015-1.311l3.095-1.01a32.71 32.71 0 0 1 3.126-.679l1.484-.174.505-.063 1.169-.142c.38-.026.756-.002 1.136-.016a33.41 33.41 0 0 1 1.295-.032l.71-.016.521.032a33.1 33.1 0 0 1 2.605.205c3.728.421 7.45 1.443 10.988 3.205 11.175 5.562 17.594 16.603 17.667 28.07h44.979a73 73 0 0 0-.348-7.184l20.714-13.861c-.005-.027-.025-.052-.031-.079a95.7 95.7 0 0 0-1.2-4.721 96.03 96.03 0 0 0-1.452-4.689 95.98 95.98 0 0 0-1.706-4.642 91.652 91.652 0 0 0-1.421-3.347l-24.818.679c-.166-.28-.367-.543-.537-.821h-.157a76.23 76.23 0 0 0-3.884-5.779 75.45 75.45 0 0 0-4.342-5.32l8.431-23.145-2.21-1.894a104.713 104.713 0 0 0-3.805-2.98 101.1 101.1 0 0 0-3.947-2.779 100.71 100.71 0 0 0-4.058-2.589l-1.184-.695-19.703 14.824c-.287-.126-.581-.209-.869-.332l-.047.032c-2.175-.925-4.397-1.737-6.647-2.463s-4.525-1.354-6.836-1.879l-.031-.079c-.012-.002-.021-.013-.032-.016L333.948 1.54l-2.984-.3a102.945 102.945 0 0 0-4.847-.221c-1.082-.028-2.167-.019-3.253-.016-.543.006-1.083-.014-1.625 0-1.618.042-3.223.119-4.832.237-.512.038-1.021.113-1.531.158l-7.073 23.429a79.41 79.41 0 0 0-14.951 4.657L272.96 14.535l-1.99 1.137a100.79 100.79 0 0 0-4.057 2.589 99.5 99.5 0 0 0-3.947 2.779 100.36 100.36 0 0 0-3.805 2.984c-.495.407-.966.844-1.452 1.263v.001zm91.837 19.845a5.422 5.422 0 0 1 2.037.553c2.607 1.298 3.649 4.431 2.321 6.978s-4.53 3.556-7.136 2.258-3.649-4.415-2.321-6.962c.996-1.91 3.038-2.969 5.099-2.826zm-75.212 23.887a5.394 5.394 0 0 1 2.036.553c2.607 1.298 3.65 4.416 2.321 6.962s-4.529 3.556-7.136 2.258-3.649-4.416-2.321-6.962c.997-1.911 3.039-2.953 5.1-2.81z" class="S"/><path d="m389.795 171.719-8.304-22.829c.017-.019.029-.043.047-.063l-.064-.189a75.63 75.63 0 0 0 9.347-12.584l25.008.679 1.452-3.378 1.705-4.642a95.9 95.9 0 0 0 1.468-4.704l1.074-4.216-20.461-13.688c.025-.224.009-.454.032-.679l-.142-.094c.235-2.387.313-4.773.315-7.152H356.34a31.3 31.3 0 0 1-.331 4.278 31.273 31.273 0 0 1-.9 4.168 31.31 31.31 0 0 1-1.452 4.01 31.782 31.782 0 0 1-2.005 3.79 31.44 31.44 0 0 1-2.511 3.52 31.794 31.794 0 0 1-3.031 3.174 31.93 31.93 0 0 1-3.489 2.794 33 33 0 0 1-3.979 2.336c-.996.497-1.994.924-3.015 1.311a33.02 33.02 0 0 1-3.094 1.01l-3.126.679-1.485.174-.505.063-1.168.142c-.38.026-.757.003-1.136.016l-1.295.031c-.237-.001-.474.022-.711.016l-.52-.031-2.605-.206c-3.728-.421-7.451-1.443-10.989-3.205-11.173-5.562-17.595-16.603-17.666-28.07h-44.98a72.97 72.97 0 0 0 .347 7.183l-20.714 13.862c.006.027.026.052.032.079a95.7 95.7 0 0 0 1.2 4.721 96.21 96.21 0 0 0 1.452 4.689 96.32 96.32 0 0 0 1.705 4.641c.445 1.121.93 2.238 1.421 3.347l24.818-.679c.166.281.367.543.537.821h.158c1.216 1.997 2.509 3.928 3.883 5.778s2.823 3.623 4.342 5.321l-8.431 23.145 2.211 1.895a98.72 98.72 0 0 0 3.804 2.983c1.292.96 2.614 1.885 3.947 2.779s2.685 1.761 4.058 2.589a45.23 45.23 0 0 0 1.184.695l19.703-14.824c.287.125.581.209.868.331l.048-.032c2.175.925 4.396 1.737 6.646 2.463s4.526 1.354 6.837 1.879l.031.079c.011.002.02.013.032.016l7.088 23.523 2.984.3c1.609.119 3.23.179 4.847.221 1.081.029 2.167.02 3.252.016h1.626a102.22 102.22 0 0 0 4.831-.237c.512-.037 1.021-.112 1.532-.158l7.073-23.428a79.44 79.44 0 0 0 14.951-4.657l19.892 14.95 1.989-1.137a99 99 0 0 0 4.057-2.589 99.443 99.443 0 0 0 3.948-2.779 98.72 98.72 0 0 0 3.804-2.983c.495-.407.966-.845 1.453-1.263l.002-.001zm-91.837-19.845a5.42 5.42 0 0 1-2.037-.552c-2.607-1.298-3.649-4.431-2.32-6.978s4.528-3.556 7.136-2.258 3.649 4.416 2.32 6.962c-.996 1.911-3.038 2.969-5.099 2.826zm75.212-23.886a5.43 5.43 0 0 1-2.036-.553c-2.608-1.298-3.65-4.416-2.321-6.962s4.529-3.556 7.136-2.258 3.649 4.415 2.321 6.962c-.997 1.911-3.039 2.953-5.1 2.811z" class="S"/><path d="m421.225 105.907 8.304 22.829c-.017.019-.03.043-.047.063l.063.19a75.73 75.73 0 0 0-9.347 12.583l-25.006-.68-1.454 3.379-1.704 4.641a96.29 96.29 0 0 0-1.469 4.705l-1.073 4.216 20.461 13.687c-.026.226-.009.455-.032.68l.142.095c-.235 2.386-.313 4.773-.316 7.151h44.931c.01-1.433.127-2.869.333-4.279a31.03 31.03 0 0 1 .9-4.168 31.2 31.2 0 0 1 1.452-4.009c.578-1.304 1.25-2.568 2.005-3.789s1.586-2.402 2.51-3.521 1.943-2.175 3.032-3.174 2.243-1.937 3.488-2.794a33 33 0 0 1 3.979-2.336 32.642 32.642 0 0 1 3.015-1.311 32.75 32.75 0 0 1 3.095-1.01 32.59 32.59 0 0 1 3.126-.679l1.484-.174.504-.063 1.17-.142c.38-.027.756-.002 1.136-.016a37.18 37.18 0 0 1 1.295-.032l.71-.015.521.032 2.605.204c3.728.422 7.449 1.444 10.988 3.206 11.174 5.562 17.594 16.603 17.667 28.07h44.978c0-2.387-.109-4.788-.346-7.183l20.712-13.862c-.005-.026-.025-.052-.03-.079a95.676 95.676 0 0 0-4.358-14.051 90.937 90.937 0 0 0-1.422-3.347l-24.818.68c-.165-.281-.366-.544-.536-.822h-.158a76.033 76.033 0 0 0-3.883-5.778 75.23 75.23 0 0 0-4.343-5.32l8.431-23.145-2.21-1.895a100.535 100.535 0 0 0-3.804-2.984 100.67 100.67 0 0 0-3.947-2.779 100.118 100.118 0 0 0-4.058-2.589l-1.184-.695-19.703 14.824c-.287-.126-.581-.209-.868-.331l-.048.032a78.457 78.457 0 0 0-6.647-2.463 79.91 79.91 0 0 0-6.835-1.88l-.032-.078c-.011-.002-.02-.013-.031-.015l-7.089-23.524-2.984-.3a102.964 102.964 0 0 0-4.846-.221c-1.083-.029-2.167-.02-3.254-.016-.542.005-1.083-.014-1.626 0a102.24 102.24 0 0 0-4.83.236c-.513.038-1.022.113-1.532.158l-7.073 23.428a79.466 79.466 0 0 0-14.951 4.657l-19.892-14.95-1.989 1.136a99.036 99.036 0 0 0-4.058 2.589 100.03 100.03 0 0 0-3.947 2.779 99.74 99.74 0 0 0-3.804 2.984c-.496.408-.967.845-1.453 1.263zm91.837 19.845a5.46 5.46 0 0 1 2.037.552c2.606 1.299 3.648 4.432 2.32 6.979s-4.529 3.555-7.136 2.257-3.648-4.415-2.321-6.962c.996-1.91 3.038-2.968 5.1-2.826zm-75.212 23.887a5.45 5.45 0 0 1 2.036.552c2.607 1.298 3.649 4.416 2.321 6.962s-4.53 3.557-7.136 2.259-3.65-4.416-2.321-6.962c.996-1.911 3.039-2.953 5.1-2.811z" class="O"/><path d="m553.311 252.34-8.305-22.829c.017-.02.029-.044.047-.063l-.063-.19a75.71 75.71 0 0 0 9.347-12.582l25.006.678 1.454-3.377 1.705-4.643a96.65 96.65 0 0 0 1.468-4.704 95.32 95.32 0 0 0 1.073-4.215l-20.461-13.689c.025-.225.009-.454.032-.678l-.142-.095c.235-2.387.314-4.774.315-7.152h-44.931c-.01 1.433-.127 2.869-.331 4.278s-.506 2.802-.9 4.168a31.31 31.31 0 0 1-1.452 4.01 31.556 31.556 0 0 1-2.006 3.789 31.48 31.48 0 0 1-2.51 3.521 31.58 31.58 0 0 1-3.032 3.173c-1.088.998-2.243 1.938-3.489 2.795s-2.582 1.641-3.978 2.336c-.997.497-1.994.924-3.016 1.311a33.22 33.22 0 0 1-3.094 1.01 32.59 32.59 0 0 1-3.126.679l-1.484.174-.505.063-1.168.142c-.38.027-.758.003-1.136.016l-1.296.031c-.236-.001-.474.022-.71.016l-.521-.032-2.604-.205c-3.729-.421-7.451-1.444-10.989-3.205-11.173-5.562-17.594-16.602-17.666-28.07h-44.98a73.33 73.33 0 0 0 .347 7.184l-20.713 13.861c.006.026.026.052.032.078a94.59 94.59 0 0 0 1.2 4.721 94.46 94.46 0 0 0 1.452 4.689 97.035 97.035 0 0 0 1.705 4.642c.445 1.12.93 2.238 1.421 3.347l24.818-.679c.166.28.367.543.537.821h.158a75.748 75.748 0 0 0 3.884 5.778 75.17 75.17 0 0 0 4.342 5.32l-8.431 23.145 2.211 1.895c1.245 1.024 2.512 2.025 3.804 2.983s2.613 1.885 3.946 2.779 2.686 1.761 4.058 2.59l1.185.694 19.702-14.824c.287.126.581.209.868.331l.048-.032c2.175.926 4.397 1.737 6.647 2.463s4.526 1.354 6.836 1.879l.031.079c.011.002.02.013.032.016l7.088 23.523 2.984.301c1.609.118 3.23.178 4.847.22 1.081.028 2.167.02 3.253.016h1.625a102.26 102.26 0 0 0 4.832-.236c.511-.038 1.021-.113 1.531-.158l7.073-23.43a79.34 79.34 0 0 0 14.951-4.656l19.892 14.95 1.989-1.136a101.21 101.21 0 0 0 4.057-2.59c1.334-.894 2.656-1.819 3.947-2.779s2.559-1.959 3.805-2.983c.496-.407.966-.845 1.453-1.263h.001zm-91.837-19.845a5.44 5.44 0 0 1-2.037-.553c-2.607-1.298-3.65-4.431-2.321-6.978s4.529-3.555 7.136-2.257 3.649 4.415 2.321 6.962c-.996 1.91-3.038 2.968-5.099 2.826zm75.212-23.887a5.43 5.43 0 0 1-2.036-.552c-2.608-1.299-3.65-4.415-2.322-6.962s4.529-3.556 7.137-2.259 3.649 4.416 2.32 6.962c-.996 1.911-3.038 2.954-5.099 2.811z" class="O"/><path d="M487.367 131.486c-25.962 0-47.151 21.168-47.151 47.13s21.189 47.152 47.151 47.152 47.131-21.189 47.131-47.152-21.169-47.13-47.131-47.13zm0 10.761c20.139 0 36.369 16.232 36.369 36.369s-16.23 36.391-36.369 36.391-36.389-16.252-36.389-36.391 16.251-36.369 36.389-36.369z" class="O"/><path d="M487.367 133.065c-25.1 0-45.55 20.45-45.55 45.551s20.45 45.552 45.55 45.552 45.53-20.451 45.53-45.552-20.429-45.551-45.53-45.551zm0 7.582c21 0 37.97 16.969 37.97 37.969s-16.97 37.97-37.97 37.97-37.969-16.969-37.969-37.97 16.969-37.969 37.969-37.969z" class="O"/></g><path d="M605.805 153h-73.417A16.39 16.39 0 0 0 516 169.388V334.81a16.39 16.39 0 0 0 16.388 16.388h73.417c9.05 0 16.388-7.337 16.388-16.388V169.388c0-9.051-7.338-16.388-16.388-16.388z" class="P T U"/><g stroke-miterlimit="10"><path d="M569.842 343.362c3.357 0 6.079-2.973 6.079-6.641s-2.722-6.641-6.079-6.641-6.079 2.973-6.079 6.641 2.722 6.641 6.079 6.641z" fill="url(#E)" stroke="#0c0c0c"/><path opacity=".55" d="M568.643 335.095h2.061a.75.75 0 0 1 .75.749v1.732a1.26 1.26 0 0 1-1.26 1.259h-1.566a.753.753 0 0 1-.75-.75v-2.248a.75.75 0 0 1 .061-.288.754.754 0 0 1 .414-.402.74.74 0 0 1 .29-.052z" stroke="#424242"/></g><path d="M558.149 169.463c.356 0 .645-.436.645-.975s-.289-.974-.645-.974-.644.436-.644.974.288.975.644.975z" class="O"/><path d="M576.191 167.814h-11.91a.884.884 0 1 0 0 1.769h11.91a.884.884 0 0 0 0-1.769z" fill="#191918"/><path d="M575.493 168.031h-10.231c-.368 0-.667.297-.667.664s.299.663.667.663h10.231c.369 0 .668-.297.668-.663s-.299-.664-.668-.664z" class="O"/><path d="M528.551 180.359h82.126c.638 0 1.156.518 1.156 1.156V318.14c0 .639-.518 1.157-1.156 1.157h-82.126a1.157 1.157 0 0 1-1.157-1.157V181.515c0-.638.518-1.156 1.157-1.156z" class="P Q"/><mask id="B" maskUnits="userSpaceOnUse" x="526" y="179" width="87" height="141" mask-type="alpha"><path d="M528.551 180.359h82.126c.638 0 1.156.518 1.156 1.156V318.14c0 .639-.518 1.157-1.156 1.157h-82.126a1.157 1.157 0 0 1-1.157-1.157V181.515c0-.638.518-1.156 1.157-1.156z" class="P Q"/></mask><g mask="url(#B)"><use xlink:href="#C" fill="#0f82d5"/><use xlink:href="#D" fill="#0f82d5"/><use xlink:href="#C" x="70" y="-65" class="S"/><use xlink:href="#D" x="70" y="-65" class="S"/></g><defs><path id="C" d="m495.552 234.668 4.332 11.908c-.01.01-.016.022-.025.033l.033.098a39.52 39.52 0 0 0-4.875 6.563l-13.044-.354-.758 1.763-.889 2.421-.766 2.454-.56 2.198 10.673 7.14c-.013.117-.005.237-.017.354l.074.049a38.223 38.223 0 0 0-.165 3.731h23.437a16.14 16.14 0 0 1 .173-2.232 16.12 16.12 0 0 1 .469-2.174c.206-.713.456-1.411.758-2.091s.652-1.34 1.045-1.977.828-1.252 1.31-1.836 1.013-1.135 1.581-1.655 1.17-1.011 1.82-1.458a17.11 17.11 0 0 1 2.075-1.219c.52-.258 1.04-.481 1.573-.683l1.614-.527a16.93 16.93 0 0 1 1.63-.354l.774-.091.264-.033.609-.074c.198-.014.395-.001.593-.008l.675-.017.371-.008.272.017 1.358.107a17.11 17.11 0 0 1 5.732 1.671c5.828 2.902 9.177 8.661 9.215 14.642h23.461a38.25 38.25 0 0 0-.181-3.747l10.804-7.23c-.003-.014-.013-.027-.016-.041a50.143 50.143 0 0 0-1.384-4.908 50.33 50.33 0 0 0-.889-2.421 49.078 49.078 0 0 0-.741-1.746l-12.945.354c-.087-.146-.192-.283-.281-.428h-.082a39.33 39.33 0 0 0-2.026-3.014 39.08 39.08 0 0 0-2.264-2.775l4.397-12.073-1.153-.988c-.65-.534-1.311-1.055-1.984-1.556s-1.364-.983-2.059-1.449-1.4-.919-2.116-1.351l-.618-.362-10.277 7.732c-.15-.066-.304-.109-.453-.173l-.025.017a41.178 41.178 0 0 0-3.467-1.285 41.57 41.57 0 0 0-3.566-.98l-.016-.041-3.714-12.278-1.556-.157a54.588 54.588 0 0 0-2.529-.115c-.564-.015-1.13-.01-1.696-.008-.283.003-.565-.008-.848 0a54.14 54.14 0 0 0-2.52.123c-.267.02-.533.059-.799.083l-3.689 12.22a41.404 41.404 0 0 0-7.799 2.429l-10.375-7.798-1.038.593a52.56 52.56 0 0 0-2.116 1.35 53.3 53.3 0 0 0-2.059 1.449 52.833 52.833 0 0 0-1.985 1.557c-.258.212-.503.44-.757.659zm47.902 10.351c.359.025.723.119 1.063.288 1.359.677 1.903 2.312 1.21 3.64s-2.362 1.855-3.722 1.178-1.903-2.303-1.211-3.632a2.784 2.784 0 0 1 2.66-1.474zm-39.231 12.46c.359.024.723.119 1.063.288 1.359.677 1.903 2.303 1.21 3.631s-2.362 1.855-3.722 1.178-1.903-2.303-1.21-3.631c.519-.997 1.584-1.541 2.659-1.466z"/><path id="D" d="m564.448 311.047-4.332-11.907c.01-.01.016-.023.025-.033l-.033-.099a39.404 39.404 0 0 0 4.875-6.564l13.044.355.758-1.763.889-2.421.766-2.454.56-2.198-10.673-7.14c.014-.117.005-.237.017-.354l-.074-.049c.123-1.245.164-2.49.165-3.731h-23.437a16.3 16.3 0 0 1-.173 2.232 16.435 16.435 0 0 1-1.227 4.265c-.301.68-.652 1.34-1.046 1.977s-.827 1.252-1.309 1.836-1.014 1.135-1.581 1.655-1.17 1.011-1.82 1.458-1.347.856-2.075 1.219a17.19 17.19 0 0 1-1.573.683l-1.614.527-1.631.354-.774.091-.263.033-.609.074c-.199.014-.395.001-.593.008l-.676.017c-.123-.001-.247.011-.37.008l-.272-.017-1.359-.107a17.105 17.105 0 0 1-5.731-1.671c-5.828-2.902-9.178-8.661-9.215-14.642h-23.462a38.25 38.25 0 0 0 .182 3.747l-10.805 7.23c.003.014.013.028.017.042a49.024 49.024 0 0 0 1.383 4.908c.275.813.57 1.616.889 2.421a48.06 48.06 0 0 0 .742 1.746l12.945-.355c.086.147.191.283.28.429h.082c.634 1.041 1.309 2.048 2.026 3.013s1.472 1.89 2.264 2.776l-4.397 12.072 1.153.988a52.8 52.8 0 0 0 1.984 1.557 52.98 52.98 0 0 0 2.059 1.449c.696.467 1.4.919 2.116 1.35l.618.363 10.277-7.733c.15.066.303.11.453.173l.025-.016c1.134.482 2.293.906 3.467 1.284s2.36.707 3.565.98l.017.041 3.714 12.279 1.556.156c.839.062 1.685.094 2.528.115.564.015 1.131.011 1.697.009h.848c.843-.022 1.68-.062 2.52-.124.266-.019.532-.058.798-.082l3.69-12.221a41.394 41.394 0 0 0 7.798-2.429l10.376 7.798 1.038-.593c.716-.431 1.42-.883 2.116-1.35s1.385-.949 2.059-1.449a52.8 52.8 0 0 0 1.984-1.557c.259-.212.504-.44.758-.658l.001-.001zm-47.902-10.351a2.807 2.807 0 0 1-1.062-.288c-1.36-.677-1.904-2.311-1.211-3.64s2.362-1.854 3.722-1.177 1.903 2.303 1.211 3.631a2.78 2.78 0 0 1-2.66 1.474zm39.231-12.459a2.835 2.835 0 0 1-1.063-.288c-1.36-.677-1.903-2.304-1.21-3.632s2.362-1.855 3.722-1.178 1.903 2.303 1.21 3.632c-.519.997-1.585 1.54-2.659 1.466z"/><linearGradient id="E" x1="566.619" y1="342.358" x2="573.14" y2="331.085" gradientUnits="userSpaceOnUse"><stop stop-color="#0a0a0a"/><stop offset=".57" stop-color="#1b1b1b"/><stop offset="1" stop-color="#090909"/></linearGradient></defs></svg>