<svg xmlns="http://www.w3.org/2000/svg" xmlns:xlink="http://www.w3.org/1999/xlink" width="128" height="128" fill="none" xmlns:v="https://vecta.io/nano"><g clip-path="url(#X)"><g fill-rule="evenodd"><path d="M64.359 2C44.287 2 28.128 18.159 28.128 38.231v40.257h10.064V38.231a26.11 26.11 0 0 1 26.167-26.167 26.11 26.11 0 0 1 26.167 26.167v40.257h10.064V38.231C100.59 18.159 84.431 2 64.359 2Z" fill="#282828"/><path opacity=".65" d="M64.359 4.63c-18.957 0-34.218 16.306-34.218 34.908v37.528c0 14.09 8.776 26.05 21.26 31.047-8.945-4.073-15.222-12.8-15.222-23.147V37.562c0-14.225 11.67-26.62 26.167-26.62h4.026c14.496 0 26.167 12.395 26.167 26.62v47.404c0 10.347-6.278 19.074-15.222 23.147 12.484-4.997 21.26-16.958 21.26-31.047V39.538c0-18.602-15.261-34.909-34.218-34.909Z" fill="url(#T)"/><path opacity=".5" d="M64.359 2.854c-19.51 0-35.217 15.6-35.217 34.98v39.095c0 14.677 9.033 27.137 21.881 32.344-9.206-4.243-15.666-13.334-15.666-24.113V35.777c0-14.82 12.011-29.082 26.93-29.082h4.143c14.92 0 26.93 14.263 26.93 29.082V85.16c0 10.779-6.46 19.87-15.666 24.113 12.848-5.206 21.881-17.666 21.881-32.344V37.834c0-19.38-15.707-34.98-35.217-34.98h.001Z" fill="url(#U)"/><path opacity=".8" d="M49.471 12.003c-5.438 3.405-8.499 9.21-7.9 11.145.646 2.085 4.467-7.234 15.284-10.119 8.34-2.225-.001-5.649-7.384-1.026Z" fill="url(#H)"/><path opacity=".8" d="M79.248 11.903c5.438 3.405 8.499 9.21 7.9 11.145-.646 2.085-4.467-7.234-15.283-10.119-8.341-2.225 0-5.649 7.383-1.026Z" fill="url(#C)"/><path opacity=".5" d="M64.359 6.28c-18.957 0-34.218 12.994-34.218 31.95v38.244c0 14.358 8.776 26.546 21.26 31.639-8.945-4.15-15.222-13.044-15.222-23.588V36.217c0-14.496 11.67-26.182 26.167-26.182h4.026c14.496 0 26.167 11.686 26.167 26.182v48.308c0 10.544-6.278 19.437-15.222 23.588 12.484-5.093 21.26-17.28 21.26-31.639V38.23c0-18.957-15.261-31.95-34.218-31.95Z" fill="url(#Q)"/><path opacity=".8" d="M64.359 4.039c-26.762 0-32.937 23.315-32.937 33.86 0 31.634 2.059 31.634 2.059 0 0-23.2 16.463-32.355 30.879-32.355s30.879 10.103 30.879 32.355c0 31.634 2.058 31.634 2.058 0 0-10.545-6.176-33.86-32.937-33.86h-.001Z" fill="url(#R)"/><path opacity=".6" d="M64.359 7.091c-26.167 0-32.205 22.3-32.205 31.987 0 29.062 2.013 29.062 2.013 0 0-21.312 16.097-30.605 30.192-30.605s30.192 10.162 30.192 30.605c0 29.062 2.013 29.062 2.013 0 0-9.687-6.039-31.987-32.205-31.987z" fill="url(#S)"/><g fill="#fff"><path opacity=".8" d="M36.98 16.488c-2.875 5.248 3.027 1.931 4.398.274 3.854-4.66 10.368-8.036 16.085-9.139 4.795-.924 5.526-2.775 1.578-3.082-7.873-.61-19.304 6.916-22.061 11.947Z"/><path opacity=".6" d="M32.623 25.156c.305 2.565 5.264-5.798 9.168-9.724 4.768-4.795 11.996-8.15 15.473-8.594 6.198-.79 3.256-3.828-.629-3.06-14.12 2.789-24.79 14.838-24.012 21.379v-.001Z"/><path opacity=".8" d="M91.58 16.452c2.895 5.238-3.02 1.942-4.397.29-3.87-4.645-10.397-7.998-16.119-9.08-4.798-.906-6.148-2.751-2.201-3.072 7.87-.64 19.942 6.84 22.717 11.862Z"/><path opacity=".6" d="M95.798 24.925c-.295 2.566-5.285-5.778-9.204-9.69C81.81 10.458 74.57 7.128 71.09 6.698c-6.202-.768-3.293-3.695.616-3.062 14.142 2.301 24.845 14.746 24.092 21.289Z"/></g><path opacity=".4" d="M49.032 11.138c-7.09 4.049-11.079 10.951-10.298 13.252.842 2.48 5.823-8.601 19.923-12.032 10.873-2.646 0-6.717-9.625-1.22Z" fill="url(#D)"/><path opacity=".4" d="M79.54 10.945c6.54 4.118 10.221 11.138 9.5 13.478-.776 2.521-5.371-8.748-18.38-12.238-10.031-2.691 0-6.831 8.88-1.24Z" fill="url(#E)"/><path opacity=".4" d="M120.717 124.781c0 .528-1.458 1.052-4.29 1.54s-6.984.932-12.217 1.306-11.447.671-18.284.873l-21.568.306c-7.4 0-14.73-.104-21.567-.306s-13.05-.499-18.284-.873-9.385-.817-12.217-1.306S8 125.309 8 124.781s1.458-1.052 4.29-1.541 6.984-.932 12.217-1.306 11.446-.67 18.284-.872a734.754 734.754 0 0 1 21.567-.307l21.568.307c6.837.202 13.05.498 18.284.872s9.384.818 12.217 1.306 4.29 1.012 4.29 1.541z" fill="url(#F)"/><path opacity=".4" d="M120.717 121.761c0 .661-1.458 1.315-4.29 1.926s-6.984 1.165-12.217 1.632-11.447.838-18.284 1.091a589.65 589.65 0 0 1-21.568.383c-7.4 0-14.73-.13-21.567-.383s-13.05-.624-18.284-1.091-9.385-1.022-12.217-1.632S8 122.422 8 121.761s1.458-1.315 4.29-1.926 6.984-1.165 12.217-1.632 11.446-.838 18.284-1.091a589.642 589.642 0 0 1 21.567-.383c7.401 0 14.73.13 21.568.383s13.05.624 18.284 1.091 9.384 1.022 12.217 1.632 4.29 1.265 4.29 1.926z" fill="url(#G)"/><path opacity=".4" d="M120.717 122.768c0 .529-1.458 1.052-4.29 1.541s-6.984.932-12.217 1.306-11.447.67-18.284.872l-21.568.307c-7.4 0-14.73-.105-21.567-.307s-13.05-.499-18.284-.872-9.385-.818-12.217-1.306S8 123.297 8 122.768s1.458-1.052 4.29-1.541 6.984-.932 12.217-1.306 11.446-.67 18.284-.872a738.252 738.252 0 0 1 21.567-.307l21.568.307c6.837.202 13.05.499 18.284.872s9.384.818 12.217 1.306 4.29 1.012 4.29 1.541z" fill="url(#A)"/><use xlink:href="#Y" fill="url(#N)"/><use xlink:href="#Y" opacity=".03" fill="url(#V)"/><use xlink:href="#Y" opacity=".03" fill="url(#O)"/><use xlink:href="#Y" opacity=".03" fill="url(#P)"/><path opacity=".5" d="M26.619 57.359c1.81 2.122 18.145 3.786 38.655 3.786 20.229 0 36.293-1.647 38.484-3.727-.031-.003-.026-.06-.057-.06H26.619v.001Z" fill="#fff"/><path opacity=".403" d="M28.444 62.456c-.756 5.21-1.6 38.262 1.198 45.338 2.737 6.923 2.395-33.027 9.067-39.314 6.742-6.355-9.552-10.939-10.265-6.025Z" fill="url(#I)"/><path opacity=".3" d="M28.028 62.802c-.872 6.083-1.847 44.668 1.382 52.929 3.159 8.081 2.764-38.556 10.463-45.896 7.78-7.418-11.022-12.77-11.845-7.032Z" fill="url(#J)"/><path opacity=".2" d="M27.173 63.1c-1.083 6.834-2.295 50.184 1.718 59.465 3.925 9.08 3.434-43.317 13.001-51.565 9.669-8.334-13.697-14.346-14.719-7.9Z" fill="url(#K)"/><path opacity=".403" d="M100.277 62.456c.756 5.21 1.6 38.262-1.198 45.338-2.737 6.923-2.395-33.027-9.067-39.314-6.742-6.355 9.552-10.939 10.265-6.025Z" fill="url(#L)"/><path opacity=".3" d="M100.693 62.802c.872 6.083 1.847 44.668-1.382 52.929-3.159 8.081-2.764-38.556-10.463-45.896-7.781-7.418 11.022-12.77 11.845-7.032Z" fill="url(#M)"/><path opacity=".2" d="M101.548 63.1c1.083 6.834 2.295 50.184-1.718 59.465-3.925 9.08-3.434-43.317-13.001-51.565-9.67-8.334 13.697-14.346 14.719-7.9Z" fill="url(#B)"/><path opacity=".25" d="M103.12 114.72v7.887c0 .558-.432 1.007-.969 1.007H26.576c-.537 0-.969-.449-.969-1.007V94.592c0 29.516 77.513-20.879 77.513 20.128Z" fill="url(#W)"/><path opacity=".5" d="M25.647 123.62c1.81-2.122 18.145-3.786 38.655-3.786 20.229 0 36.293 1.647 38.484 3.727-.031.003-.026.059-.057.059H25.647Z" fill="#000"/></g><path d="M24.102 93.995V78.707h25.992l53.956.39v15.288l.088 13.727-54.044 1.171H24.103V93.995Z" fill="#fac800"/><path d="M52.655 77.855v.031H24.108v31.875H76.09v-.031h28.547V77.855H52.655Zm50.832 2.188.06 10.938-11.536-10.97 11.476.032Zm-25.315-.188 25.355 24.969.024 3.162-10.954-.193-28.486-27.781 14.06-.157Zm-35.578.031h7.01l28.468 27.758-14.163.055-28.346-27.656 7.03-.157ZM25.32 84.48l.262.188 23.456 23.03-13.718.032-10.04-9.813-.062-13.312.102-.125Z" fill="#030200"/></g><defs><radialGradient id="A" cx="0" cy="0" r="1" gradientTransform="matrix(56.3589 0 0 4.02618 64.359 122.785)" xlink:href="#Z"><stop stop-color="#282828"/><stop offset="1" stop-color="#282828" stop-opacity="0"/></radialGradient><radialGradient id="B" cx="0" cy="0" r="1" gradientTransform="matrix(-16.1952 0 0 -56.5291 98.437 66.929)" xlink:href="#Z"><stop stop-color="#fff"/><stop offset="1" stop-color="#fff" stop-opacity="0"/></radialGradient><radialGradient id="C" cx="0" cy="0" r="1" gradientTransform="matrix(-14.3603 0 0 -10.4762 78.013 15.393)" xlink:href="#Z"><stop stop-color="#ffe19c"/><stop offset="1" stop-color="#b79e4f" stop-opacity="0"/></radialGradient><radialGradient id="D" cx="0" cy="0" r="1" gradientTransform="matrix(18.7195 0 0 12.4568 50.636 15.289)" xlink:href="#Z"><stop stop-color="#ffe19c"/><stop offset="1" stop-color="#b79e4f" stop-opacity="0"/></radialGradient><radialGradient id="E" cx="0" cy="0" r="1" gradientTransform="matrix(-17.2711 0 0 -12.6692 78.064 15.166)" xlink:href="#Z"><stop stop-color="#ffe19c"/><stop offset="1" stop-color="#b79e4f" stop-opacity="0"/></radialGradient><radialGradient id="F" cx="0" cy="0" r="1" gradientTransform="matrix(56.3589 0 0 4.02618 64.359 124.797)" xlink:href="#Z"><stop stop-color="#282828"/><stop offset="1" stop-color="#282828" stop-opacity="0"/></radialGradient><radialGradient id="G" cx="0" cy="0" r="1" gradientTransform="matrix(56.3589 0 0 5.03272 64.359 121.782)" xlink:href="#Z"><stop stop-color="#282828"/><stop offset="1" stop-color="#282828" stop-opacity="0"/></radialGradient><radialGradient id="H" cx="0" cy="0" r="1" gradientTransform="matrix(14.3603 0 0 10.4762 50.702 15.494)" xlink:href="#Z"><stop stop-color="#ffe19c"/><stop offset="1" stop-color="#b79e4f" stop-opacity="0"/></radialGradient><radialGradient id="I" cx="0" cy="0" r="1" gradientTransform="matrix(11.2939 0 0 43.1004 30.614 65.375)" xlink:href="#Z"><stop stop-color="#fff"/><stop offset="1" stop-color="#fff" stop-opacity="0"/></radialGradient><radialGradient id="J" cx="0" cy="0" r="1" gradientTransform="matrix(13.0331 0 0 50.3148 30.531 66.208)" xlink:href="#Z"><stop stop-color="#fff"/><stop offset="1" stop-color="#fff" stop-opacity="0"/></radialGradient><radialGradient id="K" cx="0" cy="0" r="1" gradientTransform="matrix(16.1952 0 0 56.5291 30.284 66.929)" xlink:href="#Z"><stop stop-color="#fff"/><stop offset="1" stop-color="#fff" stop-opacity="0"/></radialGradient><radialGradient id="L" cx="0" cy="0" r="1" gradientTransform="matrix(-11.2939 0 0 -43.1004 98.107 65.375)" xlink:href="#Z"><stop stop-color="#fff"/><stop offset="1" stop-color="#fff" stop-opacity="0"/></radialGradient><radialGradient id="M" cx="0" cy="0" r="1" gradientTransform="matrix(-13.0331 0 0 -50.3148 98.19 66.208)" xlink:href="#Z"><stop stop-color="#fff"/><stop offset="1" stop-color="#fff" stop-opacity="0"/></radialGradient><linearGradient id="N" x1="63.672" y1="0" x2="96.185" y2="0" xlink:href="#Z"><stop stop-color="#a47c44"/><stop offset=".75" stop-color="#baa363"/><stop offset="1" stop-color="#d6c795"/></linearGradient><linearGradient id="O" x1="53.779" y1="79.351" x2="54.303" y2="82.815" xlink:href="#Z"><stop/><stop offset="1" stop-color="#fff"/></linearGradient><linearGradient id="P" x1="39.181" y1="109.34" x2="38.794" y2="113.64" xlink:href="#Z"><stop/><stop offset="1" stop-color="#fff"/></linearGradient><linearGradient id="Q" x1="0" y1="23.756" x2="0" y2="18.82" xlink:href="#Z"><stop stop-color="#fff"/><stop offset="1" stop-color="#fff" stop-opacity="0"/></linearGradient><linearGradient id="R" x1="0" y1="45.727" x2="0" y2="-28.041" xlink:href="#Z"><stop stop-color="#fff"/><stop offset="1" stop-color="#fff" stop-opacity="0"/></linearGradient><linearGradient id="S" x1="0" y1="46.27" x2="0" y2="-21.499" xlink:href="#Z"><stop stop-color="#fff"/><stop offset="1" stop-color="#fff" stop-opacity="0"/></linearGradient><linearGradient id="T" x1="0" y1="5.967" x2="0" y2="30.538" xlink:href="#Z"><stop stop-color="#fff"/><stop offset="1" stop-color="#fff" stop-opacity="0"/></linearGradient><linearGradient id="U" x1="62.768" y1="27.624" x2="67.453" y2="16.054" xlink:href="#Z"><stop stop-color="#fff"/><stop offset="1" stop-color="#fff" stop-opacity="0"/></linearGradient><linearGradient id="V" x1="0" y1="83.634" x2="0" y2="85.348" xlink:href="#Z"><stop/><stop offset="1" stop-color="#fff"/></linearGradient><linearGradient id="W" x1="0" y1="124.4" x2="0" y2="81.122" xlink:href="#Z"><stop stop-color="#fff"/><stop offset="1" stop-color="#fff" stop-opacity="0"/></linearGradient><clipPath id="X"><path fill="#fff" d="M0 0h128v128H0z"/></clipPath><path id="Y" d="M24.603 57.36h79.513a.5.5 0 0 1 .5.5v65.258a.5.5 0 0 1-.5.5H24.603a.499.499 0 0 1-.5-.5V57.859a.5.5 0 0 1 .5-.5Z"/><linearGradient id="Z" gradientUnits="userSpaceOnUse"/></defs></svg>