<svg xmlns="http://www.w3.org/2000/svg" width="288" height="288" xmlns:v="https://vecta.io/nano"><svg viewBox="0 0 64 64" width="288" height="288"><g fill="#fff"><path d="M39.76 50.36a1 1 0 0 1-.37-1.93 19.71 19.71 0 1 0-14.78 0 1 1 0 1 1-.74 1.85 21.71 21.71 0 1 1 16.26 0 1 1 0 0 1-.37.08zm.05-20.9a1 1 0 0 1-.66-.25l-7.81-6.81a1 1 0 0 1 1.32-1.5l7.81 6.8a1 1 0 0 1-.66 1.76z"/><path d="M24.19 29.46a1 1 0 0 1-.66-1.76l7.81-6.8a1 1 0 1 1 1.32 1.5l-7.81 6.81a1 1 0 0 1-.66.25z"/><path d="M32 55.55a1 1 0 0 1-1-1v-32.9a1 1 0 0 1 2 0v32.9a1 1 0 0 1-1 1Z"/></g></svg></svg>